HIERARCHY
ROOT RootJoint
{
    OFFSET   0.000000   0.000000   0.000000
    CHANNELS 6 Xposition Yposition Zposition Xrotation Yrotation Zrotation
    JOINT pelvis_lowerback
    {
        OFFSET   0.000000   0.093605   0.000000
        CHANNELS 3 Xrotation Yrotation Zrotation
        JOINT lowerback_torso
        {
            OFFSET   0.000000   0.100000   0.000000
            CHANNELS 3 Xrotation Yrotation Zrotation
            JOINT torso_head
            {
                OFFSET   0.000000   0.282350   0.000000
                CHANNELS 3 Xrotation Yrotation Zrotation
                End Site
                {
                    OFFSET   0.000000   0.192650   0.000000
                }
            }
            JOINT rTorso_Clavicle
            {
                OFFSET  -0.001000   0.157500   0.000000
                CHANNELS 3 Xrotation Yrotation Zrotation
                JOINT rShoulder
                {
                    OFFSET  -0.117647   0.000000   0.000000
                    CHANNELS 3 Xrotation Yrotation Zrotation
                    JOINT rElbow
                    {
                        OFFSET  -0.245000   0.000000   0.000000
                        CHANNELS 3 Xrotation Yrotation Zrotation
                        JOINT rWrist
                        {
                            OFFSET  -0.240000   0.000000   0.000000
                            CHANNELS 3 Xrotation Yrotation Zrotation
                            End Site
                            {
                                OFFSET  -0.116353  -0.002500   0.000000
                            }
                        }
                    }
                }
            }
            JOINT lTorso_Clavicle
            {
                OFFSET   0.001000   0.157500   0.000000
                CHANNELS 3 Xrotation Yrotation Zrotation
                JOINT lShoulder
                {
                    OFFSET   0.117647   0.000000   0.000000
                    CHANNELS 3 Xrotation Yrotation Zrotation
                    JOINT lElbow
                    {
                        OFFSET   0.245000   0.000000   0.000000
                        CHANNELS 3 Xrotation Yrotation Zrotation
                        JOINT lWrist
                        {
                            OFFSET   0.240000   0.000000   0.000000
                            CHANNELS 3 Xrotation Yrotation Zrotation
                            End Site
                            {
                                OFFSET   0.116353  -0.002500   0.000000
                            }
                        }
                    }
                }
            }
        }
    }
    JOINT rHip
    {
        OFFSET  -0.100000  -0.051395   0.000000
        CHANNELS 3 Xrotation Yrotation Zrotation
        JOINT rKnee
        {
            OFFSET   0.000000  -0.410000   0.000000
            CHANNELS 3 Xrotation Yrotation Zrotation
            JOINT rAnkle
            {
                OFFSET   0.000000  -0.390000   0.000000
                CHANNELS 3 Xrotation Yrotation Zrotation
                JOINT rToeJoint
                {
                    OFFSET   0.000000  -0.050000   0.130000
                    CHANNELS 3 Xrotation Yrotation Zrotation
                    End Site
                    {
                        OFFSET  -0.010000   0.002000   0.060000
                    }
                }
            }
        }
    }
    JOINT lHip
    {
        OFFSET   0.100000  -0.051395   0.000000
        CHANNELS 3 Xrotation Yrotation Zrotation
        JOINT lKnee
        {
            OFFSET   0.000000  -0.410000   0.000000
            CHANNELS 3 Xrotation Yrotation Zrotation
            JOINT lAnkle
            {
                OFFSET   0.000000  -0.390000   0.000000
                CHANNELS 3 Xrotation Yrotation Zrotation
                JOINT lToeJoint
                {
                    OFFSET   0.000000  -0.050000   0.130000
                    CHANNELS 3 Xrotation Yrotation Zrotation
                    End Site
                    {
                        OFFSET   0.010000   0.002000   0.060000
                    }
                }
            }
        }
    }
}
MOTION
Frames: 5
Frame Time:   0.008333
 -2.350284   0.922811   3.868060 -177.484757 -15.488329 177.135264   4.253805  -0.628148  -1.267687   2.395524  -1.812924   2.052475  -1.228378   0.330379   2.232775   2.802281  -2.219450   9.580319   4.661923   3.853042  51.318994  -0.000190  18.651096   0.000051  -1.534347   3.404524  -2.304172   3.941296   0.039272  -8.934010   3.236555  -5.607820 -53.842861  -0.000056 -18.077736  -0.000120  -1.399796  -2.776294   5.686036   5.592117  -1.691380   0.272144   8.174161   0.000031   0.000001  -1.649836  -6.494340   4.051167 -14.125064  -0.000111  -0.000026   6.954919  -0.317057   5.450247   4.137977   0.000058  -0.000063  -9.009207   3.684423   3.653790   0.478080   0.000003  -0.000000
 -2.350172   0.922791   3.867822 -177.462971 -15.503244 177.149874   4.201291  -0.627942  -1.259812   2.422018  -1.820322   2.058939  -1.195957   0.322403   2.209382   2.786747  -2.164259   9.560522   4.612270   3.882071  51.395684  -0.000173  18.619651   0.000046  -1.567178   3.402780  -2.261641   3.932789  -0.004480  -8.918278   3.191349  -5.644418 -53.888589  -0.000044 -18.024164  -0.000101  -1.418703  -2.772082   5.664341   5.663089  -1.710954   0.273800   8.113692   0.000029   0.000003  -1.656769  -6.484786   4.071461 -14.084442  -0.000100  -0.000021   7.031787  -0.311304   5.454614   4.050267   0.000054  -0.000062  -8.979521   3.670172   3.651808   0.475278   0.000003  -0.000000
 -2.350057   0.922770   3.867583 -177.440122 -15.518557 177.164022   4.150201  -0.627883  -1.254286   2.447420  -1.826952   2.063600  -1.163750   0.314422   2.187384   2.770223  -2.111607   9.540981   4.564029   3.910525  51.467509  -0.000154  18.591484   0.000041  -1.599116   3.405088  -2.220221   3.924987  -0.044843  -8.902434   3.149208  -5.678308 -53.930438  -0.000034 -17.973825  -0.000083  -1.437433  -2.764137   5.644914   5.732214  -1.729388   0.276410   8.058830   0.000027   0.000004  -1.664086  -6.475709   4.090893 -14.050238  -0.000089  -0.000017   7.106292  -0.306225   5.459958   3.969651   0.000050  -0.000061  -8.953501   3.656037   3.649687   0.473534   0.000002  -0.000000
 -2.349942   0.922749   3.867347 -177.417956 -15.534329 177.177272   4.100651  -0.627264  -1.250564   2.469955  -1.832544   2.066754  -1.133650   0.306897   2.166660   2.753896  -2.061823   9.522058   4.518169   3.937574  51.534021  -0.000136  18.565665   0.000037  -1.629643   3.410352  -2.181556   3.917936  -0.082280  -8.887206   3.110044  -5.709718 -53.969068  -0.000027 -17.926745  -0.000066  -1.455457  -2.755599   5.627268   5.798078  -1.746508   0.279803   8.008494   0.000025   0.000003  -1.671227  -6.467031   4.109254 -14.021549  -0.000078  -0.000013   7.177151  -0.302085   5.466097   3.894712   0.000047  -0.000059  -8.930138   3.642157   3.647668   0.472650   0.000002  -0.000000
 -2.349828   0.922728   3.867115 -177.396825 -15.550647 177.189628   4.052742  -0.626043  -1.248350   2.489731  -1.837175   2.068555  -1.105744   0.299855   2.147176   2.738112  -2.014936   9.503681   4.474855   3.963066  51.595532  -0.000119  18.541831   0.000033  -1.658827   3.417186  -2.145790   3.911568  -0.117017  -8.872825   3.073634  -5.738868 -54.004946  -0.000021 -17.882752  -0.000052  -1.472762  -2.747155   5.610897   5.860595  -1.762410   0.283792   7.962017   0.000023   0.000002  -1.678065  -6.458764   4.126568 -13.997483  -0.000068  -0.000010   7.244248  -0.298909   5.472839   3.824724   0.000044  -0.000057  -8.908920   3.628459   3.645786   0.472443   0.000002  -0.000000
